<svg xmlns="http://www.w3.org/2000/svg" version="1.1" xmlns:xlink="http://www.w3.org/1999/xlink" xmlns:svgjs="http://svgjs.com/svgjs" width="1440" height="560" preserveAspectRatio="none" viewBox="0 0 1440 560"><g mask="url(&quot;#SvgjsMask1050&quot;)" fill="none"><path d="M677 665.23C843.19 636.23 921.69 227.6 1188 224.5 1454.31 221.4 1566.55 363.24 1699 364.5" stroke="rgba(202, 206, 204, 1)" stroke-width="2"></path><path d="M754.84 591.8C849.19 558.19 777.31 302.6 1003.42 277.6 1229.53 252.6 1365.99 74.49 1500.58 70.4" stroke="rgba(202, 206, 204, 1)" stroke-width="2"></path><path d="M397.64 599.63C565.37 596.12 689.98 379.19 1028.41 370.57 1366.85 361.95 1488.4 112.58 1659.19 107.37" stroke="rgba(202, 206, 204, 1)" stroke-width="2"></path><path d="M230.87 657.67C358.87 644.41 436.77 370.07 656.56 368.32 876.35 366.57 869.41 438.32 1082.26 438.32 1295.1 438.32 1400.1 368.55 1507.95 368.32" stroke="rgba(202, 206, 204, 1)" stroke-width="2"></path><path d="M526.21 665.81C659 662.79 752.09 489.03 1023.77 479.46 1295.45 469.89 1382.07 234.51 1521.33 227.46" stroke="rgba(202, 206, 204, 1)" stroke-width="2"></path></g><defs><mask id="SvgjsMask1050"><rect width="1440" height="560" fill="#ffffff"></rect></mask></defs></svg>